<svg width="3882" height="2216" xmlns="http://www.w3.org/2000/svg" xmlns:xlink="http://www.w3.org/1999/xlink" xml:space="preserve" overflow="hidden"><defs><clipPath id="clip0"><rect x="231" y="142" width="3882" height="2216"/></clipPath><linearGradient x1="3318.5" y1="851" x2="3318.5" y2="1914" gradientUnits="userSpaceOnUse" spreadMethod="reflect" id="fill1"><stop offset="0" stop-color="#6083CB"/><stop offset="0.5" stop-color="#3E70CA"/><stop offset="1" stop-color="#2E61BA"/></linearGradient><linearGradient x1="3772" y1="1200" x2="3772" y2="1914" gradientUnits="userSpaceOnUse" spreadMethod="reflect" id="fill2"><stop offset="0" stop-color="#6083CB"/><stop offset="0.5" stop-color="#3E70CA"/><stop offset="1" stop-color="#2E61BA"/></linearGradient></defs><g clip-path="url(#clip0)" transform="translate(-231 -142)"><path d="M0 117.328 233.493 117.328 233.493 49.0002 233.659 49.0002 272.829 0 312 49.0002 312.166 49.0002 312.166 196 0 196Z" fill="#8FAADC" fill-rule="evenodd" transform="matrix(1.83697e-16 1 1 -1.83697e-16 3855 691)"/><path d="M231 1521 4087.1 1521" stroke="#000000" stroke-width="10.3125" stroke-miterlimit="8" stroke-dasharray="41.25 30.9375 10.3125 30.9375" fill="none" fill-rule="evenodd"/><path d="M1417 174.334C1417 156.476 1431.48 142 1449.33 142L1894.67 142C1912.52 142 1927 156.476 1927 174.334L1927 303.666C1927 321.523 1912.52 336 1894.67 336L1449.33 336C1431.48 336 1417 321.523 1417 303.666Z" fill="#800080" fill-rule="evenodd"/><text fill="#FFFFFF" font-family="Calibri,Calibri_MSFontService,sans-serif" font-weight="400" font-size="73" transform="matrix(1 0 0 1 1586.99 264)">templates</text><g><g><g><path d="M123.188 115.583 22.8125 115.583C19.4667 115.583 16.7292 112.846 16.7292 109.5L16.7292 36.5C16.7292 33.1542 19.4667 30.4167 22.8125 30.4167L51.4042 30.4167C52.6209 30.4167 53.8375 30.7209 54.75 31.4813L71.4792 42.5834 123.188 42.5834C126.533 42.5834 129.271 45.3209 129.271 48.6667L129.271 109.5C129.271 112.846 126.533 115.583 123.188 115.583Z" fill="#E7E6E6" transform="matrix(1 0 0 1.31507 1432 145)"/></g></g></g><path d="M1570 393C1570 380.85 1579.85 371 1592 371L2095 371C2107.15 371 2117 380.85 2117 393L2117 481C2117 493.15 2107.15 503 2095 503L1592 503C1579.85 503 1570 493.15 1570 481Z" fill="#CC3399" fill-rule="evenodd"/><text fill="#FFFFFF" font-family="Calibri,Calibri_MSFontService,sans-serif" font-style="italic" font-weight="400" font-size="55" transform="matrix(1 0 0 1 1717.9 455)">rhoCentralFoam</text><g><g><g><path d="M83.5312 78.375 15.4688 78.375C13.2 78.375 11.3438 76.5187 11.3438 74.25L11.3438 24.75C11.3438 22.4812 13.2 20.625 15.4688 20.625L34.8563 20.625C35.6812 20.625 36.5063 20.8313 37.125 21.3469L48.4688 28.875 83.5312 28.875C85.8 28.875 87.6562 30.7312 87.6562 33L87.6562 74.25C87.6562 76.5187 85.8 78.375 83.5312 78.375Z" fill="#E7E6E6" transform="matrix(1 0 0 1.31313 1580 373)"/></g></g></g><path d="M1570 563C1570 550.85 1579.85 541 1592 541L2095 541C2107.15 541 2117 550.85 2117 563L2117 651C2117 663.15 2107.15 673 2095 673L1592 673C1579.85 673 1570 663.15 1570 651Z" fill="#CC3399" fill-rule="evenodd"/><text fill="#FFFFFF" font-family="Calibri,Calibri_MSFontService,sans-serif" font-style="italic" font-weight="400" font-size="55" transform="matrix(1 0 0 1 1726.54 625)">rhoPimpleFoam</text><g><g><g><path d="M83.5312 78.375 15.4688 78.375C13.2 78.375 11.3438 76.5187 11.3438 74.25L11.3438 24.75C11.3438 22.4812 13.2 20.625 15.4688 20.625L34.8563 20.625C35.6812 20.625 36.5063 20.8313 37.125 21.3469L48.4688 28.875 83.5312 28.875C85.8 28.875 87.6562 30.7312 87.6562 33L87.6562 74.25C87.6562 76.5187 85.8 78.375 83.5312 78.375Z" fill="#E7E6E6" transform="matrix(1 0 0 1.31313 1580 543)"/></g></g></g><path d="M1570 732C1570 719.85 1579.85 710 1592 710L2095 710C2107.15 710 2117 719.85 2117 732L2117 820C2117 832.15 2107.15 842 2095 842L1592 842C1579.85 842 1570 832.15 1570 820Z" fill="#CC3399" fill-rule="evenodd"/><text fill="#FFFFFF" font-family="Calibri,Calibri_MSFontService,sans-serif" font-style="italic" font-weight="400" font-size="55" transform="matrix(1 0 0 1 1698.46 794)">rhoPimpleFoam2</text><g><g><g><path d="M83.5312 78.375 15.4688 78.375C13.2 78.375 11.3438 76.5187 11.3438 74.25L11.3438 24.75C11.3438 22.4812 13.2 20.625 15.4688 20.625L34.8563 20.625C35.6812 20.625 36.5063 20.8313 37.125 21.3469L48.4688 28.875 83.5312 28.875C85.8 28.875 87.6562 30.7312 87.6562 33L87.6562 74.25C87.6562 76.5187 85.8 78.375 83.5312 78.375Z" fill="#E7E6E6" transform="matrix(1 0 0 1.31313 1580 712)"/></g></g></g><path d="M0 0 100.35 0 100.35 65.083" stroke="#800080" stroke-width="10.3125" stroke-miterlimit="8" fill="none" fill-rule="evenodd" transform="matrix(1.83697e-16 1 1 -1.83697e-16 1505 337)"/><path d="M0 0 270.356 0 270.356 65.0826" stroke="#800080" stroke-width="10.3125" stroke-miterlimit="8" fill="none" fill-rule="evenodd" transform="matrix(1.83697e-16 1 1 -1.83697e-16 1505 337)"/><path d="M0 0 439.372 0 439.372 65.083" stroke="#800080" stroke-width="10.3125" stroke-miterlimit="8" fill="none" fill-rule="evenodd" transform="matrix(1.83697e-16 1 1 -1.83697e-16 1505 337)"/><path d="M0 0 611.112 0 611.112 65.0826" stroke="#800080" stroke-width="10.3125" stroke-miterlimit="8" fill="none" fill-rule="evenodd" transform="matrix(1.83697e-16 1 1 -1.83697e-16 1505 337)"/><text fill="#800080" font-family="Calibri,Calibri_MSFontService,sans-serif" font-weight="400" font-size="83" transform="matrix(1 0 0 1 1603 975)">···</text><path d="M1887 1210.17C1887 1192.4 1901.4 1178 1919.17 1178L2593.83 1178C2611.6 1178 2626 1192.4 2626 1210.17L2626 1338.83C2626 1356.6 2611.6 1371 2593.83 1371L1919.17 1371C1901.4 1371 1887 1356.6 1887 1338.83Z" fill="#00B050" fill-rule="evenodd"/><text fill="#FFFFFF" font-family="Calibri,Calibri_MSFontService,sans-serif" font-weight="400" font-size="73" transform="matrix(1 0 0 1 2090.18 1300)">template_run.sh</text><g><g><g><path d="M1964.73 1299.36 1945.34 1279.99 1964.73 1260.62 1969.52 1265.4 1954.95 1279.99 1969.52 1294.57 1964.73 1299.36Z" fill="#E7E6E6"/><path d="M2010.27 1299.36 2005.48 1294.57 2020.05 1279.99 2005.48 1265.4 2010.27 1260.62 2029.66 1279.99 2010.27 1299.36Z" fill="#E7E6E6"/><path d="M1976.13 1299.21 1992.37 1260.02 1998.65 1262.62 1982.4 1301.81Z" fill="#E7E6E6"/><path d="M1919.58 1218.86 1919.58 1324.14 2055.42 1324.14 2055.42 1218.86ZM2036.74 1229.05C2038.62 1229.05 2040.14 1230.57 2040.14 1232.45 2040.14 1234.32 2038.62 1235.84 2036.74 1235.84 2034.86 1235.84 2033.34 1234.32 2033.34 1232.45 2033.34 1230.57 2034.86 1229.05 2036.74 1229.05ZM2024.85 1229.05C2026.73 1229.05 2028.25 1230.57 2028.25 1232.45 2028.25 1234.32 2026.73 1235.84 2024.85 1235.84 2022.98 1235.84 2021.46 1234.32 2021.46 1232.45 2021.46 1230.57 2022.98 1229.05 2024.85 1229.05ZM2012.97 1229.05C2014.84 1229.05 2016.36 1230.57 2016.36 1232.45 2016.36 1234.32 2014.84 1235.84 2012.97 1235.84 2011.09 1235.84 2009.57 1234.32 2009.57 1232.45 2009.57 1230.57 2011.09 1229.05 2012.97 1229.05ZM2045.23 1313.95 1929.77 1313.95 1929.77 1246.03 2045.23 1246.03Z" fill="#E7E6E6"/></g></g></g><path d="M2117 431.844 2261.59 431.844 2261.59 1152.61 2251.28 1152.61 2251.28 437 2256.43 442.156 2117 442.156ZM2271.9 1147.45 2256.43 1178.39 2240.96 1147.45Z" fill="#3B3838"/><path d="M1751.04 1268.84 1861.87 1269.69 1861.79 1280 1750.96 1279.16ZM1856.79 1259.34 1887.61 1275.04 1856.56 1290.27Z" fill="#3B3838"/><path d="M346 588.167C346 570.401 360.402 556 378.167 556L1326.83 556C1344.6 556 1359 570.401 1359 588.167L1359 716.833C1359 734.598 1344.6 749 1326.83 749L378.167 749C360.402 749 346 734.598 346 716.833Z" fill="#00B050" fill-rule="evenodd"/><text fill="#FFFFFF" font-family="Calibri,Calibri_MSFontService,sans-serif" font-weight="400" font-size="73" transform="matrix(1 0 0 1 541.775 677)">get_configuration_files.py</text><g><g><g><path d="M58.731 109.363 39.3408 89.9897 58.731 70.6165 63.5192 75.4046 48.951 89.9897 63.5192 104.575 58.731 109.363Z" fill="#E7E6E6" transform="matrix(1.00613 0 0 1 368 568)"/><path d="M104.269 109.363 99.4811 104.575 114.049 89.9897 99.4811 75.4046 104.269 70.6165 123.66 89.9897 104.269 109.363Z" fill="#E7E6E6" transform="matrix(1.00613 0 0 1 368 568)"/><path d="M60.2285 87.5897 102.698 87.5897 102.698 94.3875 60.2285 94.3875Z" fill="#E7E6E6" transform="matrix(0.384846 -0.922981 0.928641 0.3825 334.039 699.3)"/><path d="M13.5834 28.8646 13.5834 134.136 149.417 134.136 149.417 28.8646ZM130.74 39.0522C132.615 39.0522 134.136 40.5725 134.136 42.448 134.136 44.3235 132.615 45.8438 130.74 45.8438 128.864 45.8438 127.344 44.3235 127.344 42.448 127.344 40.5725 128.864 39.0522 130.74 39.0522ZM118.854 39.0522C120.73 39.0522 122.25 40.5725 122.25 42.448 122.25 44.3235 120.73 45.8438 118.854 45.8438 116.979 45.8438 115.459 44.3235 115.459 42.448 115.459 40.5725 116.979 39.0522 118.854 39.0522ZM106.969 39.0522C108.844 39.0522 110.365 40.5725 110.365 42.448 110.365 44.3235 108.844 45.8438 106.969 45.8438 105.093 45.8438 103.573 44.3235 103.573 42.448 103.573 40.5725 105.093 39.0522 106.969 39.0522ZM139.229 123.948 23.7709 123.948 23.7709 56.0313 139.229 56.0313Z" fill="#E7E6E6" transform="matrix(1.00613 0 0 1 368 568)"/></g></g></g><path d="M2280 184.334C2280 166.476 2294.48 152 2312.33 152L2610.67 152C2628.52 152 2643 166.476 2643 184.334L2643 313.666C2643 331.524 2628.52 346 2610.67 346L2312.33 346C2294.48 346 2280 331.524 2280 313.666Z" fill="#800080" fill-rule="evenodd"/><text fill="#FFFFFF" font-family="Calibri,Calibri_MSFontService,sans-serif" font-weight="400" font-size="73" transform="matrix(1 0 0 1 2459.93 274)">todo</text><g><g><g><path d="M124.031 116.375 22.9688 116.375C19.6 116.375 16.8438 113.619 16.8438 110.25L16.8438 36.75C16.8438 33.3813 19.6 30.625 22.9688 30.625L51.7563 30.625C52.9813 30.625 54.2063 30.9313 55.125 31.6969L71.9688 42.875 124.031 42.875C127.4 42.875 130.156 45.6313 130.156 49L130.156 110.25C130.156 113.619 127.4 116.375 124.031 116.375Z" fill="#E7E6E6" transform="matrix(1 0 0 1.30612 2294 154)"/></g></g></g><path d="M2432 402.834C2432 390.775 2441.78 381 2453.83 381L3387.17 381C3399.22 381 3409 390.775 3409 402.834L3409 490.166C3409 502.224 3399.22 512 3387.17 512L2453.83 512C2441.78 512 2432 502.224 2432 490.166Z" fill="#CC3399" fill-rule="evenodd"/><text fill="#FFFFFF" font-family="Calibri,Calibri_MSFontService,sans-serif" font-style="italic" font-weight="400" font-size="55" transform="matrix(1 0 0 1 2613.05 464)">Ma2.3_AoA8_R1_rhoPimpleFoam</text><g><g><g><path d="M83.5312 78.375 15.4688 78.375C13.2 78.375 11.3438 76.5187 11.3438 74.25L11.3438 24.75C11.3438 22.4812 13.2 20.625 15.4688 20.625L34.8563 20.625C35.6812 20.625 36.5063 20.8313 37.125 21.3469L48.4688 28.875 83.5312 28.875C85.8 28.875 87.6562 30.7312 87.6562 33L87.6562 74.25C87.6562 76.5187 85.8 78.375 83.5312 78.375Z" fill="#E7E6E6" transform="matrix(1 0 0 1.31313 2442 382)"/></g></g></g><path d="M2432 573.834C2432 561.776 2441.78 552 2453.83 552L3387.17 552C3399.22 552 3409 561.776 3409 573.834L3409 661.166C3409 673.225 3399.22 683 3387.17 683L2453.83 683C2441.78 683 2432 673.225 2432 661.166Z" fill="#CC3399" fill-rule="evenodd"/><text fill="#FFFFFF" font-family="Calibri,Calibri_MSFontService,sans-serif" font-style="italic" font-weight="400" font-size="55" transform="matrix(1 0 0 1 2613.05 635)">Ma2.3_AoA8_R5_rhoPimpleFoam</text><g><g><g><path d="M83.5312 78.375 15.4688 78.375C13.2 78.375 11.3438 76.5187 11.3438 74.25L11.3438 24.75C11.3438 22.4812 13.2 20.625 15.4688 20.625L34.8563 20.625C35.6812 20.625 36.5063 20.8313 37.125 21.3469L48.4688 28.875 83.5312 28.875C85.8 28.875 87.6562 30.7312 87.6562 33L87.6562 74.25C87.6562 76.5187 85.8 78.375 83.5312 78.375Z" fill="#E7E6E6" transform="matrix(1 0 0 1.31313 2442 553)"/></g></g></g><path d="M2431 741.834C2431 729.776 2440.78 720 2452.83 720L3387.17 720C3399.22 720 3409 729.776 3409 741.834L3409 829.166C3409 841.225 3399.22 851 3387.17 851L2452.83 851C2440.78 851 2431 841.225 2431 829.166Z" fill="#CC3399" fill-rule="evenodd"/><text fill="#FFFFFF" font-family="Calibri,Calibri_MSFontService,sans-serif" font-style="italic" font-weight="400" font-size="55" transform="matrix(1 0 0 1 2548.15 803)">Ma4.63_AoA16_R5_rhoCentralFoam</text><g><g><g><path d="M83.5312 78.375 15.4688 78.375C13.2 78.375 11.3438 76.5187 11.3438 74.25L11.3438 24.75C11.3438 22.4812 13.2 20.625 15.4688 20.625L34.8563 20.625C35.6812 20.625 36.5063 20.8313 37.125 21.3469L48.4688 28.875 83.5312 28.875C85.8 28.875 87.6562 30.7312 87.6562 33L87.6562 74.25C87.6562 76.5187 85.8 78.375 83.5312 78.375Z" fill="#E7E6E6" transform="matrix(1 0 0 1.31313 2442 721)"/></g></g></g><path d="M0 0 100.35 0 100.35 65.0829" stroke="#800080" stroke-width="10.3125" stroke-miterlimit="8" fill="none" fill-rule="evenodd" transform="matrix(1.83697e-16 1 1 -1.83697e-16 2367 346)"/><path d="M0 0 271.215 0 271.215 65.0826" stroke="#800080" stroke-width="10.3125" stroke-miterlimit="8" fill="none" fill-rule="evenodd" transform="matrix(1.83697e-16 1 1 -1.83697e-16 2367 346)"/><path d="M0 0 439.348 0 439.348 63.2493" stroke="#800080" stroke-width="10.3125" stroke-miterlimit="8" fill="none" fill-rule="evenodd" transform="matrix(1.83697e-16 1 1 -1.83697e-16 2367 346)"/><path d="M0 0 601.853 0 601.853 63.2493" stroke="#800080" stroke-width="10.3125" stroke-miterlimit="8" fill="none" fill-rule="evenodd" transform="matrix(1.83697e-16 1 1 -1.83697e-16 2367 346)"/><text fill="#800080" font-family="Calibri,Calibri_MSFontService,sans-serif" font-weight="400" font-size="83" transform="matrix(1 0 0 1 2463.62 975)">···</text><path d="M0-5.15625 298.813-5.15625 298.813 398.06 288.5 398.06 288.5 0 293.656 5.15625 0 5.15625ZM309.125 392.904 293.656 423.841 278.188 392.904Z" fill="#3B3838" transform="matrix(1 0 0 -1 2626 1274.84)"/><path d="M344 841.334C344 823.476 358.477 809 376.334 809L977.666 809C995.523 809 1010 823.476 1010 841.334L1010 970.666C1010 988.523 995.523 1003 977.666 1003L376.334 1003C358.477 1003 344 988.523 344 970.666Z" fill="#800080" fill-rule="evenodd"/><text fill="#FFFFFF" font-family="Calibri,Calibri_MSFontService,sans-serif" font-weight="400" font-size="73" transform="matrix(1 0 0 1 570.967 931)">configuration</text><g><g><g><path d="M123.188 115.583 22.8125 115.583C19.4667 115.583 16.7292 112.846 16.7292 109.5L16.7292 36.5C16.7292 33.1542 19.4667 30.4167 22.8125 30.4167L51.4042 30.4167C52.6209 30.4167 53.8375 30.7209 54.75 31.4813L71.4792 42.5834 123.188 42.5834C126.533 42.5834 129.271 45.3209 129.271 48.6667L129.271 109.5C129.271 112.846 126.533 115.583 123.188 115.583Z" fill="#E7E6E6" transform="matrix(1 0 0 1.30822 358 812)"/></g></g></g><path d="M496 1059C496 1046.85 505.85 1037 518 1037L1729 1037C1741.15 1037 1751 1046.85 1751 1059L1751 1147C1751 1159.15 1741.15 1169 1729 1169L518 1169C505.85 1169 496 1159.15 496 1147Z" fill="#4472C4" fill-rule="evenodd"/><text fill="#FFFFFF" font-family="Calibri,Calibri_MSFontService,sans-serif" font-style="italic" font-weight="400" font-size="55" transform="matrix(1 0 0 1 687.051 1121)">config_Ma2.3_AoA8_R1_rhoPimpleFoam.json</text><path d="M496 1229.83C496 1217.78 505.775 1208 517.833 1208L1729.17 1208C1741.22 1208 1751 1217.78 1751 1229.83L1751 1317.17C1751 1329.22 1741.22 1339 1729.17 1339L517.833 1339C505.775 1339 496 1329.22 496 1317.17Z" fill="#4472C4" fill-rule="evenodd"/><text fill="#FFFFFF" font-family="Calibri,Calibri_MSFontService,sans-serif" font-style="italic" font-weight="400" font-size="55" transform="matrix(1 0 0 1 622.266 1292)">config_Ma4.63_AoA16_R5_rhoCentralFoam.json</text><path d="M0 0 99.6222 0 99.6222 65.0826" stroke="#800080" stroke-width="10.3125" stroke-miterlimit="8" fill="none" fill-rule="evenodd" transform="matrix(1.83697e-16 1 1 -1.83697e-16 431 1003)"/><path d="M0 0 270.356 0 270.356 65.0826" stroke="#800080" stroke-width="10.3125" stroke-miterlimit="8" fill="none" fill-rule="evenodd" transform="matrix(1.83697e-16 1 1 -1.83697e-16 431 1003)"/><path d="M0 0 441 0 441 68.6031" stroke="#800080" stroke-width="10.3125" stroke-miterlimit="8" fill="none" fill-rule="evenodd" transform="matrix(1.83697e-16 1 1 -1.83697e-16 431 1003)"/><text fill="#800080" font-family="Calibri,Calibri_MSFontService,sans-serif" font-weight="400" font-size="83" transform="matrix(1 0 0 1 532.779 1472)">···</text><path d="M346 657.156 263.5 657.156 268.656 652 268.656 1104.15 263.5 1099 480.427 1099 480.427 1109.31 258.343 1109.31 258.343 646.844 346 646.844ZM475.27 1088.69 506.208 1104.15 475.27 1119.62Z" fill="#3B3838"/><path d="M346 657.156 263.5 657.156 268.656 652 268.656 1274.16 263.5 1269 480.427 1269 480.427 1279.32 258.344 1279.32 258.344 646.844 346 646.844ZM475.27 1258.69 506.208 1274.16 475.27 1289.63Z" fill="#3B3838"/><path d="M2785 1717.33C2785 1699.48 2799.48 1685 2817.33 1685L3115.67 1685C3133.52 1685 3148 1699.48 3148 1717.33L3148 1846.67C3148 1864.52 3133.52 1879 3115.67 1879L2817.33 1879C2799.48 1879 2785 1864.52 2785 1846.67Z" fill="#800080" fill-rule="evenodd"/><text fill="#FFFFFF" font-family="Calibri,Calibri_MSFontService,sans-serif" font-weight="400" font-size="73" transform="matrix(1 0 0 1 3002.57 1807)">run</text><g><g><g><path d="M124.031 116.375 22.9687 116.375C19.6 116.375 16.8437 113.619 16.8437 110.25L16.8437 36.7499C16.8437 33.3812 19.6 30.625 22.9687 30.625L51.7562 30.625C52.9812 30.625 54.2062 30.9312 55.1249 31.6968L71.9686 42.8749 124.031 42.8749C127.4 42.8749 130.156 45.6312 130.156 48.9999L130.156 110.25C130.156 113.619 127.4 116.375 124.031 116.375Z" fill="#E7E6E6" transform="matrix(1 0 0 1.30612 2799 1687)"/></g></g></g><path d="M2940 1937C2940 1924.85 2949.85 1915 2962 1915L3897 1915C3909.15 1915 3919 1924.85 3919 1937L3919 2025C3919 2037.15 3909.15 2047 3897 2047L2962 2047C2949.85 2047 2940 2037.15 2940 2025Z" fill="#CC3399" fill-rule="evenodd"/><text fill="#FFFFFF" font-family="Calibri,Calibri_MSFontService,sans-serif" font-style="italic" font-weight="400" font-size="55" transform="matrix(1 0 0 1 3057.62 1999)">Ma4.63_AoA16_R5_rhoCentralFoam</text><g><g><g><path d="M83.5312 78.375 15.4688 78.375C13.2 78.375 11.3438 76.5187 11.3438 74.25L11.3438 24.75C11.3438 22.4812 13.2 20.625 15.4688 20.625L34.8563 20.625C35.6812 20.625 36.5063 20.8313 37.125 21.3469L48.4688 28.875 83.5312 28.875C85.8 28.875 87.6562 30.7312 87.6562 33L87.6562 74.25C87.6562 76.5187 85.8 78.375 83.5312 78.375Z" fill="#E7E6E6" transform="matrix(1 0 0 1.31313 2952 1917)"/></g></g></g><path d="M0 0 102.522 0 102.522 67.7511" stroke="#800080" stroke-width="10.3125" stroke-miterlimit="8" fill="none" fill-rule="evenodd" transform="matrix(1.83697e-16 1 1 -1.83697e-16 2872 1879)"/><path d="M3263 1843.23 3263 1843.23 3263 851 3374 851 3374 1843.23 3374 1843.23 3318.5 1914Z" fill="url(#fill1)" fill-rule="evenodd"/><text fill="#FFFFFF" font-family="Calibri,Calibri_MSFontService,sans-serif" font-weight="400" font-size="83" transform="matrix(6.12323e-17 1 -1 6.12323e-17 3290.75 1497)">MOVED</text><text fill="#800080" font-family="Calibri,Calibri_MSFontService,sans-serif" font-weight="400" font-size="83" transform="matrix(1 0 0 1 2973.09 2174)">···</text><path d="M0 0 268.275 0 268.275 67.751" stroke="#800080" stroke-width="10.3125" stroke-miterlimit="8" fill="none" fill-rule="evenodd" transform="matrix(1.83697e-16 1 1 -1.83697e-16 2872 1879)"/><text font-family="Calibri,Calibri_MSFontService,sans-serif" font-weight="400" font-size="83" transform="matrix(1 0 0 1 319 277)">STAGE 1: PREPARATION</text><text font-family="Calibri,Calibri_MSFontService,sans-serif" font-weight="400" font-size="83" transform="matrix(1 0 0 1 319.139 1667)">STAGE 2: EXECUTION</text><path d="M3439 192.334C3439 174.476 3453.48 160 3471.33 160L4001.67 160C4019.52 160 4034 174.476 4034 192.334L4034 321.666C4034 339.524 4019.52 354 4001.67 354L3471.33 354C3453.48 354 3439 339.524 3439 321.666Z" fill="#800080" fill-rule="evenodd"/><text fill="#FFFFFF" font-family="Calibri,Calibri_MSFontService,sans-serif" font-weight="400" font-size="73" transform="matrix(1 0 0 1 3638.69 282)">rocketMesh</text><g><g><g><path d="M123.188 115.583 22.8125 115.583C19.4667 115.583 16.7292 112.846 16.7292 109.5L16.7292 36.5C16.7292 33.1542 19.4667 30.4167 22.8125 30.4167L51.4042 30.4167C52.6209 30.4167 53.8375 30.7209 54.75 31.4813L71.4792 42.5834 123.188 42.5834C126.533 42.5834 129.271 45.3209 129.271 48.6667L129.271 109.5C129.271 112.846 126.533 115.583 123.188 115.583Z" fill="#E7E6E6" transform="matrix(1 0 0 1.31507 3454 162)"/></g></g></g><path d="M3605 918.834C3605 906.775 3614.78 897 3626.83 897L3834.17 897C3846.22 897 3856 906.775 3856 918.834L3856 1006.17C3856 1018.22 3846.22 1028 3834.17 1028L3626.83 1028C3614.78 1028 3605 1018.22 3605 1006.17Z" fill="#CC3399" fill-rule="evenodd"/><text fill="#FFFFFF" font-family="Calibri,Calibri_MSFontService,sans-serif" font-style="italic" font-weight="400" font-size="55" transform="matrix(1 0 0 1 3758.9 981)">R4</text><g><g><g><path d="M83.5312 78.375 15.4688 78.375C13.2 78.375 11.3438 76.5187 11.3438 74.25L11.3438 24.75C11.3438 22.4812 13.2 20.625 15.4688 20.625L34.8563 20.625C35.6812 20.625 36.5063 20.8313 37.125 21.3469L48.4688 28.875 83.5312 28.875C85.8 28.875 87.6562 30.7312 87.6562 33L87.6562 74.25C87.6562 76.5187 85.8 78.375 83.5312 78.375Z" fill="#E7E6E6" transform="matrix(1 0 0 1.31313 3615 898)"/></g></g></g><path d="M3605 1089.83C3605 1077.78 3614.78 1068 3626.83 1068L3834.17 1068C3846.22 1068 3856 1077.78 3856 1089.83L3856 1177.17C3856 1189.22 3846.22 1199 3834.17 1199L3626.83 1199C3614.78 1199 3605 1189.22 3605 1177.17Z" fill="#CC3399" fill-rule="evenodd"/><text fill="#FFFFFF" font-family="Calibri,Calibri_MSFontService,sans-serif" font-style="italic" font-weight="400" font-size="55" transform="matrix(1 0 0 1 3758.9 1152)">R5</text><g><g><g><path d="M83.5312 78.375 15.4688 78.375C13.2 78.375 11.3438 76.5187 11.3438 74.25L11.3438 24.75C11.3438 22.4812 13.2 20.625 15.4688 20.625L34.8563 20.625C35.6812 20.625 36.5063 20.8313 37.125 21.3469L48.4688 28.875 83.5312 28.875C85.8 28.875 87.6562 30.7312 87.6562 33L87.6562 74.25C87.6562 76.5187 85.8 78.375 83.5312 78.375Z" fill="#E7E6E6" transform="matrix(1 0 0 1.31313 3615 1069)"/></g></g></g><path d="M0 0 608.985 0 608.985 78.052" stroke="#800080" stroke-width="10.3125" stroke-miterlimit="8" fill="none" fill-rule="evenodd" transform="matrix(1.83697e-16 1 1 -1.83697e-16 3527 354)"/><path d="M0 0 779.85 0 779.85 78.052" stroke="#800080" stroke-width="10.3125" stroke-miterlimit="8" fill="none" fill-rule="evenodd" transform="matrix(1.83697e-16 1 1 -1.83697e-16 3527 354)"/><path d="M0 0 440.501 0 440.501 79.3397" stroke="#800080" stroke-width="10.3125" stroke-miterlimit="8" fill="none" fill-rule="evenodd" transform="matrix(1.83697e-16 1 1 -1.83697e-16 3527 354)"/><path d="M0 0 105.255 0 105.255 77.1783" stroke="#800080" stroke-width="10.3125" stroke-miterlimit="8" fill="none" fill-rule="evenodd" transform="matrix(1.83697e-16 1 1 -1.83697e-16 3527 354)"/><text fill="#800080" font-family="Calibri,Calibri_MSFontService,sans-serif" font-weight="400" font-size="83" transform="matrix(1 0 0 1 3639.2 822)">···</text><path d="M3604 415C3604 402.85 3613.85 393 3626 393L3874 393C3886.15 393 3896 402.85 3896 415L3896 503C3896 515.15 3886.15 525 3874 525L3626 525C3613.85 525 3604 515.15 3604 503Z" fill="#CC3399" fill-rule="evenodd"/><text fill="#FFFFFF" font-family="Calibri,Calibri_MSFontService,sans-serif" font-style="italic" font-weight="400" font-size="55" transform="matrix(1 0 0 1 3741.41 477)">parts</text><g><g><g><path d="M83.5312 78.375 15.4688 78.375C13.2 78.375 11.3438 76.5187 11.3438 74.25L11.3438 24.75C11.3438 22.4812 13.2 20.625 15.4688 20.625L34.8563 20.625C35.6812 20.625 36.5063 20.8313 37.125 21.3469L48.4688 28.875 83.5312 28.875C85.8 28.875 87.6562 30.7312 87.6562 33L87.6562 74.25C87.6562 76.5187 85.8 78.375 83.5312 78.375Z" fill="#E7E6E6" transform="matrix(1 0 0 1.31313 3616 395)"/></g></g></g><path d="M3697 582.834C3697 570.775 3706.78 561 3718.83 561L4054.17 561C4066.22 561 4076 570.775 4076 582.834L4076 670.166C4076 682.225 4066.22 692 4054.17 692L3718.83 692C3706.78 692 3697 682.225 3697 670.166Z" fill="#4472C4" fill-rule="evenodd"/><text fill="#FFFFFF" font-family="Calibri,Calibri_MSFontService,sans-serif" font-style="italic" font-weight="400" font-size="55" transform="matrix(1 0 0 1 3833.74 644)">rocket.stl</text><path d="M0 0 101.665 0 101.665 31.8293" stroke="#800080" stroke-width="10.3125" stroke-miterlimit="8" fill="none" fill-rule="evenodd" transform="matrix(1.83697e-16 1 1 -1.83697e-16 3665 525)"/><path d="M3717 1843.87 3717 1843.87 3717 1200 3827 1200 3827 1843.87 3827 1843.87 3772 1914Z" fill="url(#fill2)" fill-rule="evenodd"/><text fill="#FFFFFF" font-family="Calibri,Calibri_MSFontService,sans-serif" font-weight="400" font-size="83" transform="matrix(6.12323e-17 1 -1 6.12323e-17 3744.34 1497)">COPIED</text><path d="M0 117.926 407.438 117.926 407.438 49.2501 407.949 49.2501 446.974 0 486 49.2501 486.511 49.2501 486.511 197 0 197Z" fill="#8FAADC" fill-rule="evenodd" transform="matrix(1.83697e-16 1 1 -1.83697e-16 3856 692)"/><text fill="#FFFFFF" font-family="Calibri,Calibri_MSFontService,sans-serif" font-weight="400" font-size="83" transform="matrix(-1.83697e-16 -1 1 -1.83697e-16 4040.73 1061)">COPIED</text><path d="M2089 1915C2089 1897.33 2103.33 1883 2121 1883L2497 1883C2514.67 1883 2529 1897.33 2529 1915L2529 2043C2529 2060.67 2514.67 2075 2497 2075L2121 2075C2103.33 2075 2089 2060.67 2089 2043Z" fill="#00B050" fill-rule="evenodd"/><text fill="#FFFFFF" font-family="Calibri,Calibri_MSFontService,sans-serif" font-weight="400" font-size="73" transform="matrix(1 0 0 1 2297.95 2004)">run.sh</text><g><g><g><path d="M58.7309 109.363 39.3407 89.9895 58.7309 70.6163 63.519 75.4044 48.9509 89.9895 63.519 104.575 58.7309 109.363Z" fill="#E7E6E6" transform="matrix(1.00614 0 0 1 2107 1895)"/><path d="M104.269 109.363 99.4809 104.575 114.049 89.9895 99.4809 75.4044 104.269 70.6163 123.659 89.9895 104.269 109.363Z" fill="#E7E6E6" transform="matrix(1.00614 0 0 1 2107 1895)"/><path d="M60.2284 87.5896 102.698 87.5896 102.698 94.3873 60.2284 94.3873Z" fill="#E7E6E6" transform="matrix(0.384847 -0.92298 0.928645 0.3825 2073.04 2026.3)"/><path d="M13.5833 28.8646 13.5833 134.135 149.417 134.135 149.417 28.8646ZM130.74 39.0521C132.615 39.0521 134.135 40.5724 134.135 42.4479 134.135 44.3234 132.615 45.8437 130.74 45.8437 128.864 45.8437 127.344 44.3234 127.344 42.4479 127.344 40.5724 128.864 39.0521 130.74 39.0521ZM118.854 39.0521C120.73 39.0521 122.25 40.5724 122.25 42.4479 122.25 44.3234 120.73 45.8437 118.854 45.8437 116.979 45.8437 115.458 44.3234 115.458 42.4479 115.458 40.5724 116.979 39.0521 118.854 39.0521ZM106.969 39.0521C108.844 39.0521 110.365 40.5724 110.365 42.4479 110.365 44.3234 108.844 45.8437 106.969 45.8437 105.093 45.8437 103.573 44.3234 103.573 42.4479 103.573 40.5724 105.093 39.0521 106.969 39.0521ZM139.229 123.948 23.7708 123.948 23.7708 56.0312 139.229 56.0312Z" fill="#E7E6E6" transform="matrix(1.00614 0 0 1 2107 1895)"/></g></g></g><path d="M1082 1935.83C1082 1923.78 1091.78 1914 1103.83 1914L1441.17 1914C1453.22 1914 1463 1923.78 1463 1935.83L1463 2023.17C1463 2035.22 1453.22 2045 1441.17 2045L1103.83 2045C1091.78 2045 1082 2035.22 1082 2023.17Z" fill="#4472C4" fill-rule="evenodd"/><text fill="#FFFFFF" font-family="Calibri,Calibri_MSFontService,sans-serif" font-style="italic" font-weight="400" font-size="55" transform="matrix(1 0 0 1 1235.23 1998)">input.txt</text><path d="M1082 1691.83C1082 1679.78 1091.78 1670 1103.83 1670L2047.17 1670C2059.22 1670 2069 1679.78 2069 1691.83L2069 1779.17C2069 1791.22 2059.22 1801 2047.17 1801L1103.83 1801C1091.78 1801 1082 1791.22 1082 1779.17Z" fill="#ED7D31" fill-rule="evenodd"/><text fill="#FFFFFF" font-family="Calibri,Calibri_MSFontService,sans-serif" font-style="italic" font-weight="400" font-size="55" transform="matrix(1 0 0 1 1208.53 1753)">Ma4.63_AoA16_R5_rhoCentralFoam</text><g><g><g><path d="M93.2177 26.001 85.1562 23.8437 82.9989 15.7823 93.2177 5.56354C87.0864 3.29271 80.2739 4.54167 75.3916 8.96979 70.6229 13.3979 68.5791 20.0969 70.3958 26.3417L26.3417 70.3958C20.0969 68.6927 13.3979 70.7364 9.08333 75.5052 4.76875 80.2739 3.40625 87.0864 5.67708 93.2177L15.8958 82.9989 23.8437 85.1562 26.001 93.2177 15.7823 103.436C21.9135 105.707 28.726 104.458 33.6083 100.03 38.3771 95.602 40.4208 88.9031 38.6042 82.6583L82.6583 38.6042C88.9031 40.3073 95.602 38.2635 99.9166 33.4948 104.231 28.726 105.594 21.9135 103.323 15.7823L93.2177 26.001Z" fill="#E7E6E6" transform="matrix(1 0 0 1 1095 1680)"/></g></g></g><path d="M2069 1729.84 2313.48 1729.84 2313.48 1856.88 2303.17 1856.88 2303.17 1735 2308.32 1740.16 2069 1740.16ZM2323.79 1851.73 2308.32 1882.67 2292.86 1851.73Z" fill="#3B3838"/><path d="M2529.03 1973.84 2926.33 1976.21 2926.26 1986.52 2528.97 1984.16ZM2921.23 1965.87 2952.08 1981.52 2921.05 1996.8Z" fill="#3B3838"/><path d="M0.00323302-5.15625 599.875-4.78012 599.868 5.53237-0.00323302 5.15625ZM594.725-15.0959 625.653 0.39229 594.706 15.8416Z" fill="#3B3838" transform="matrix(1 0 0 -1 1463 1979.39)"/><text fill="#4472C4" font-family="Calibri,Calibri_MSFontService,sans-serif" font-weight="400" font-size="55" transform="matrix(1 0 0 1 1183.79 2112)">Ma4.63_AoA16_R5_rhoCentralFoam</text><text fill="#4472C4" font-family="Calibri,Calibri_MSFontService,sans-serif" font-weight="400" font-size="55" transform="matrix(1 0 0 1 1183.79 2178)">Ma2.3_AoA8_R1_rhoPimpleFoam</text><text fill="#4472C4" font-family="Calibri,Calibri_MSFontService,sans-serif" font-weight="400" font-size="55" transform="matrix(1 0 0 1 1183.79 2244)">Ma2.3_AoA8_R5_rhoPimpleFoam</text><text fill="#4472C4" font-family="Calibri,Calibri_MSFontService,sans-serif" font-weight="400" font-size="55" transform="matrix(1 0 0 1 1183.79 2310)">end</text><path d="M1144 2046 1144 2344.02" stroke="#4472C4" stroke-width="13.75" stroke-miterlimit="8" fill="none" fill-rule="evenodd"/><g><g><g><path d="M531.312 1315.38 531.312 1234.62 564.562 1234.62 564.562 1259.56 590.688 1259.56 590.688 1315.38 531.312 1315.38ZM571.688 1237.59 586.531 1252.44 571.688 1252.44 571.688 1237.59ZM571.688 1227.5 524.187 1227.5 524.187 1322.5 597.813 1322.5 597.813 1253.62 571.688 1227.5Z" fill="#E7E6E6"/></g></g></g><g><g><g><path d="M531.312 1140.38 531.312 1059.62 564.562 1059.62 564.562 1084.56 590.688 1084.56 590.688 1140.38 531.312 1140.38ZM571.688 1062.59 586.531 1077.44 571.688 1077.44 571.688 1062.59ZM571.688 1052.5 524.187 1052.5 524.187 1147.5 597.813 1147.5 597.813 1078.62 571.688 1052.5Z" fill="#E7E6E6"/></g></g></g><g><g><g><path d="M1123.31 2020.38 1123.31 1939.62 1156.56 1939.62 1156.56 1964.56 1182.69 1964.56 1182.69 2020.38 1123.31 2020.38ZM1163.69 1942.59 1178.53 1957.44 1163.69 1957.44 1163.69 1942.59ZM1163.69 1932.5 1116.19 1932.5 1116.19 2027.5 1189.81 2027.5 1189.81 1958.62 1163.69 1932.5Z" fill="#E7E6E6"/></g></g></g><g><g><g><path d="M3732.31 667.375 3732.31 586.625 3765.56 586.625 3765.56 611.562 3791.69 611.562 3791.69 667.375 3732.31 667.375ZM3772.69 589.594 3787.53 604.438 3772.69 604.438 3772.69 589.594ZM3772.69 579.5 3725.19 579.5 3725.19 674.5 3798.81 674.5 3798.81 605.625 3772.69 579.5Z" fill="#E7E6E6"/></g></g></g></g></svg>